<svg width="512" height="512" viewBox="0 0 512 512" fill="none" xmlns="http://www.w3.org/2000/svg">
  <defs>
    <linearGradient id="bg" x1="52" y1="52" x2="460" y2="460" gradientUnits="userSpaceOnUse">
      <stop stop-color="#121B38"/>
      <stop offset="1" stop-color="#1A294C"/>
    </linearGradient>
    <linearGradient id="folderTab" x1="137" y1="168" x2="214" y2="225" gradientUnits="userSpaceOnUse">
      <stop stop-color="#FFFFFF"/>
      <stop offset="1" stop-color="#E9EFF9"/>
    </linearGradient>
  </defs>
  <rect x="44" y="44" width="424" height="424" rx="112" fill="url(#bg)"/>
  <rect x="44" y="44" width="424" height="424" rx="112" stroke="#F6EFD9" stroke-opacity="0.16" stroke-width="12"/>
  <rect x="314" y="214" width="88" height="96" rx="22" fill="#FFFFFF" fill-opacity="0.16"/>
  <rect x="92" y="210" width="264" height="144" rx="34" stroke="#F6EFD9" stroke-width="20"/>
  <rect x="124" y="162" width="84" height="36" rx="18" fill="url(#folderTab)"/>
  <rect x="102" y="232" width="216" height="16" rx="8" fill="#FFFFFF"/>
  <circle cx="252" cy="248" r="64" fill="#18C2E9"/>
  <circle cx="252" cy="248" r="64" stroke="#F6EFD9" stroke-width="18"/>
  <circle cx="228" cy="224" r="10" fill="#FFFFFF" fill-opacity="0.85"/>
  <rect x="174" y="304" width="82" height="18" rx="9" transform="rotate(-42 174 304)" fill="#F6EFD9"/>
  <circle cx="360" cy="160" r="18" fill="#FF9D3F"/>
  <circle cx="360" cy="160" r="18" stroke="#F6EFD9" stroke-opacity="0.45" stroke-width="4"/>
</svg>
